<svg xmlns="http://www.w3.org/2000/svg" viewBox="0 0 780 360" width="780" height="360">

  <!-- Outer monorepo boundary -->
  <rect x="24" y="24" width="732" height="312" rx="6" fill="none" stroke="#d4cec8" stroke-width="1" stroke-dasharray="5,4"/>
  <text x="44" y="46" font-family="'Courier New',monospace" font-size="9" fill="#76695f" letter-spacing="0.14em">VIRTUAL HOME MONOREPO</text>

  <!-- Shared Foundation block -->
  <rect x="48" y="60" width="684" height="112" rx="4" fill="#e2e7d6" stroke="#c5ceb5" stroke-width="1"/>
  <text x="68" y="82" font-family="'Courier New',monospace" font-size="9" fill="#5f6f48" letter-spacing="0.14em">SHARED FOUNDATION</text>
  <line x1="48" y1="90" x2="732" y2="90" stroke="#c5ceb5" stroke-width="0.5"/>

  <!-- Shared items row 1 -->
  <rect x="68" y="102" width="136" height="32" rx="3" fill="#d4ddc7" stroke="none"/>
  <text x="136" y="123" text-anchor="middle" font-family="'Courier New',monospace" font-size="10" fill="#3a4d2a">UI components</text>

  <rect x="216" y="102" width="136" height="32" rx="3" fill="#d4ddc7" stroke="none"/>
  <text x="284" y="123" text-anchor="middle" font-family="'Courier New',monospace" font-size="10" fill="#3a4d2a">Assets</text>

  <rect x="364" y="102" width="136" height="32" rx="3" fill="#d4ddc7" stroke="none"/>
  <text x="432" y="123" text-anchor="middle" font-family="'Courier New',monospace" font-size="10" fill="#3a4d2a">Translations</text>

  <rect x="512" y="102" width="136" height="32" rx="3" fill="#d4ddc7" stroke="none"/>
  <text x="580" y="123" text-anchor="middle" font-family="'Courier New',monospace" font-size="10" fill="#3a4d2a">Device logic</text>

  <!-- Shared items row 2 -->
  <rect x="140" y="146" width="160" height="32" rx="3" fill="#d4ddc7" stroke="none"/>
  <text x="220" y="167" text-anchor="middle" font-family="'Courier New',monospace" font-size="10" fill="#3a4d2a">State management</text>

  <rect x="316" y="146" width="160" height="32" rx="3" fill="#d4ddc7" stroke="none"/>
  <text x="396" y="167" text-anchor="middle" font-family="'Courier New',monospace" font-size="10" fill="#3a4d2a">Shared utilities</text>

  <rect x="492" y="146" width="160" height="32" rx="3" fill="#d4ddc7" stroke="none"/>
  <text x="572" y="167" text-anchor="middle" font-family="'Courier New',monospace" font-size="10" fill="#3a4d2a">Build pipeline</text>

  <!-- Connector -->
  <line x1="390" y1="172" x2="390" y2="202" stroke="#d4cec8" stroke-width="0.75"/>
  <line x1="200" y1="202" x2="580" y2="202" stroke="#d4cec8" stroke-width="0.75"/>
  <line x1="200" y1="202" x2="200" y2="218" stroke="#d4cec8" stroke-width="0.75"/>
  <line x1="580" y1="202" x2="580" y2="218" stroke="#d4cec8" stroke-width="0.75"/>

  <!-- Variant A block -->
  <rect x="48" y="218" width="300" height="104" rx="4" fill="#f1eee9" stroke="#d4cec8" stroke-width="1"/>
  <text x="68" y="238" font-family="'Courier New',monospace" font-size="9" fill="#76695f" letter-spacing="0.14em">VARIANT A · MOBILE</text>
  <line x1="48" y1="246" x2="348" y2="246" stroke="#d4cec8" stroke-width="0.5"/>
  <rect x="68" y="256" width="120" height="28" rx="3" fill="#e8e4dc" stroke="none"/>
  <text x="128" y="275" text-anchor="middle" font-family="'Courier New',monospace" font-size="10" fill="#5f534a">Product behavior</text>
  <rect x="204" y="256" width="120" height="28" rx="3" fill="#e8e4dc" stroke="none"/>
  <text x="264" y="275" text-anchor="middle" font-family="'Courier New',monospace" font-size="10" fill="#5f534a">Layout adapter</text>
  <rect x="68" y="294" width="256" height="20" rx="3" fill="none" stroke="none"/>
  <text x="198" y="309" text-anchor="middle" font-family="'Courier New',monospace" font-size="9" fill="#9d9185">phone UI · touch events · compact components</text>

  <!-- Variant B block -->
  <rect x="432" y="218" width="300" height="104" rx="4" fill="#f1eee9" stroke="#d4cec8" stroke-width="1"/>
  <text x="452" y="238" font-family="'Courier New',monospace" font-size="9" fill="#76695f" letter-spacing="0.14em">VARIANT B · FAMILY HUB</text>
  <line x1="432" y1="246" x2="732" y2="246" stroke="#d4cec8" stroke-width="0.5"/>
  <rect x="452" y="256" width="120" height="28" rx="3" fill="#e8e4dc" stroke="none"/>
  <text x="512" y="275" text-anchor="middle" font-family="'Courier New',monospace" font-size="10" fill="#5f534a">Product behavior</text>
  <rect x="588" y="256" width="120" height="28" rx="3" fill="#e8e4dc" stroke="none"/>
  <text x="648" y="275" text-anchor="middle" font-family="'Courier New',monospace" font-size="10" fill="#5f534a">Layout adapter</text>
  <rect x="452" y="294" width="256" height="20" rx="3" fill="none" stroke="none"/>
  <text x="580" y="309" text-anchor="middle" font-family="'Courier New',monospace" font-size="9" fill="#9d9185">refrigerator screen · embedded UI · touch interface</text>
</svg>
