<svg xmlns="http://www.w3.org/2000/svg" viewBox="0 0 780 306" width="780" height="306">
  <defs>
    <marker id="arr" markerWidth="7" markerHeight="7" refX="5" refY="3.5" orient="auto">
      <path d="M0,0 L7,3.5 L0,7 Z" fill="#aeb997"/>
    </marker>
  </defs>

  <!-- Variant A -->
  <rect x="32" y="24" width="300" height="108" rx="4" fill="#f1eee9" stroke="#d4cec8" stroke-width="1"/>
  <rect x="32" y="24" width="300" height="34" rx="4" fill="#e8e4dc" stroke="none"/>
  <rect x="32" y="44" width="300" height="14" fill="#e8e4dc" stroke="none"/>
  <text x="52" y="46" font-family="'Courier New',monospace" font-size="9.5" fill="#76695f" letter-spacing="0.12em">VARIANT A · MOBILE</text>
  <line x1="32" y1="58" x2="332" y2="58" stroke="#d4cec8" stroke-width="0.75"/>
  <text x="182" y="92" text-anchor="middle" font-family="Georgia,serif" font-size="17" fill="#17130f">Mobile experience</text>
  <text x="182" y="114" text-anchor="middle" font-family="'Courier New',monospace" font-size="10" fill="#5f534a">Phone · touch-first layout</text>

  <!-- Variant B -->
  <rect x="448" y="24" width="300" height="108" rx="4" fill="#f1eee9" stroke="#d4cec8" stroke-width="1"/>
  <rect x="448" y="24" width="300" height="34" rx="4" fill="#e8e4dc" stroke="none"/>
  <rect x="448" y="44" width="300" height="14" fill="#e8e4dc" stroke="none"/>
  <text x="468" y="46" font-family="'Courier New',monospace" font-size="9.5" fill="#76695f" letter-spacing="0.12em">VARIANT B · FAMILY HUB</text>
  <line x1="448" y1="58" x2="748" y2="58" stroke="#d4cec8" stroke-width="0.75"/>
  <text x="598" y="92" text-anchor="middle" font-family="Georgia,serif" font-size="17" fill="#17130f">Family Hub Refrigerator</text>
  <text x="598" y="114" text-anchor="middle" font-family="'Courier New',monospace" font-size="10" fill="#5f534a">Refrigerator screen · embedded UI</text>

  <!-- Converging lines -->
  <line x1="182" y1="133" x2="390" y2="210" stroke="#aeb997" stroke-width="1.5" marker-end="url(#arr)"/>
  <line x1="598" y1="133" x2="390" y2="210" stroke="#aeb997" stroke-width="1.5" marker-end="url(#arr)"/>

  <!-- 87% label -->
  <text x="390" y="178" text-anchor="middle" font-family="'Courier New',monospace" font-size="9" fill="#aeb997" letter-spacing="0.08em">87% shared</text>

  <!-- Shared Foundation -->
  <rect x="120" y="216" width="540" height="70" rx="4" fill="#e2e7d6" stroke="#c5ceb5" stroke-width="1"/>
  <text x="390" y="241" text-anchor="middle" font-family="'Courier New',monospace" font-size="9.5" fill="#5f6f48" letter-spacing="0.14em">SHARED FOUNDATION</text>
  <line x1="140" y1="249" x2="640" y2="249" stroke="#c5ceb5" stroke-width="0.5"/>
  <text x="390" y="268" text-anchor="middle" font-family="Georgia,serif" font-size="13.5" fill="#17130f">UI · Logic · Assets · Translations · Device logic · State</text>
  <text x="390" y="284" text-anchor="middle" font-family="'Courier New',monospace" font-size="9" fill="#5f534a">Shared build pipeline · development tooling</text>
</svg>
