<svg xmlns="http://www.w3.org/2000/svg" viewBox="0 0 780 180" width="100%" preserveAspectRatio="xMidYMid meet" font-family="'Plus Jakarta Sans', system-ui, sans-serif">

  <!-- Background card -->
  <rect width="780" height="180" rx="8" fill="#faf9f7" stroke="#d4cec8" stroke-width="1"/>

  <!-- ── Stage 1: Legacy JavaScript ── -->
  <rect x="40" y="42" width="180" height="68" rx="8" fill="#f9f6f2" stroke="#d4cec8" stroke-width="1"/>
  <text x="130" y="72" text-anchor="middle" font-size="12" font-weight="500" fill="#17130f">Legacy codebase</text>
  <rect x="74" y="84" width="112" height="16" rx="8" fill="#ede8e2"/>
  <text x="130" y="95" text-anchor="middle" font-family="'DM Mono','Courier New',monospace" font-size="8" fill="#9d9185" letter-spacing="0.04em">plain JavaScript</text>

  <!-- Arrow 1 → 2 -->
  <line x1="228" y1="76" x2="294" y2="76" stroke="#c8c2ba" stroke-width="1.5"/>
  <polygon points="290,71 300,76 290,81" fill="#c8c2ba"/>

  <!-- ── Stage 2: Gradual migration ── -->
  <rect x="308" y="42" width="180" height="68" rx="8" fill="#faf9f7" stroke="#c9c0dd" stroke-width="1.25" stroke-dasharray="5,3"/>
  <text x="398" y="72" text-anchor="middle" font-size="12" font-weight="500" fill="#17130f">Gradual migration</text>
  <rect x="338" y="84" width="52" height="16" rx="8" fill="#ede8e2"/>
  <text x="364" y="95" text-anchor="middle" font-family="'DM Mono','Courier New',monospace" font-size="8" fill="#9d9185" letter-spacing="0.04em">.js</text>
  <rect x="406" y="84" width="52" height="16" rx="8" fill="#eae7f0"/>
  <text x="432" y="95" text-anchor="middle" font-family="'DM Mono','Courier New',monospace" font-size="8" fill="#5a4d7a" letter-spacing="0.04em">.ts</text>

  <!-- Arrow 2 → 3 -->
  <line x1="496" y1="76" x2="562" y2="76" stroke="#c8c2ba" stroke-width="1.5"/>
  <polygon points="558,71 568,76 558,81" fill="#c8c2ba"/>

  <!-- ── Stage 3: Full TypeScript ── -->
  <rect x="576" y="42" width="164" height="68" rx="8" fill="#eae7f0" stroke="#c9c0dd" stroke-width="1.25"/>
  <text x="658" y="72" text-anchor="middle" font-size="12" font-weight="500" fill="#4a3d6a">Full TypeScript</text>
  <rect x="600" y="84" width="116" height="16" rx="8" fill="#d6cfe6"/>
  <text x="658" y="95" text-anchor="middle" font-family="'DM Mono','Courier New',monospace" font-size="8" fill="#4a3d6a" letter-spacing="0.04em">typed throughout</text>

  <!-- Caption -->
  <text x="390" y="148" text-anchor="middle" font-size="10" font-weight="300" fill="#76695f">Migrated file by file while still shipping product work — no big-bang rewrite.</text>

</svg>
